<svg width="242" height="136" viewBox="0 0 242 136" fill="none" xmlns="http://www.w3.org/2000/svg">
<path d="M241.559 16.8789C241.559 17.582 241.435 18.3438 241.188 19.1641C240.94 19.9714 240.536 20.7266 239.977 21.4297C239.43 22.1198 238.707 22.6992 237.809 23.168C236.923 23.6367 235.842 23.8711 234.566 23.8711H225.406V19.0469H234.566C235.257 19.0469 235.79 18.8385 236.168 18.4219C236.546 17.9922 236.734 17.4648 236.734 16.8398C236.734 16.1758 236.52 15.6549 236.09 15.2773C235.673 14.8997 235.165 14.7109 234.566 14.7109H225.406C224.716 14.7109 224.182 14.9258 223.805 15.3555C223.427 15.7721 223.238 16.293 223.238 16.918V24.0078C223.238 24.6849 223.447 25.2122 223.863 25.5898C224.293 25.9674 224.82 26.1562 225.445 26.1562H234.566V31H225.406C224.703 31 223.941 30.8763 223.121 30.6289C222.314 30.3815 221.559 29.9844 220.855 29.4375C220.165 28.8776 219.586 28.1549 219.117 27.2695C218.648 26.3711 218.414 25.2839 218.414 24.0078V16.8789C218.414 16.1758 218.538 15.4206 218.785 14.6133C219.033 13.793 219.43 13.0378 219.977 12.3477C220.536 11.6445 221.259 11.0586 222.145 10.5898C223.043 10.1211 224.13 9.88672 225.406 9.88672H234.566C235.27 9.88672 236.025 10.0104 236.832 10.2578C237.652 10.5052 238.408 10.9089 239.098 11.4688C239.801 12.0156 240.387 12.7383 240.855 13.6367C241.324 14.5221 241.559 15.6029 241.559 16.8789Z" fill="white"/>
<path d="M217.008 9.88672C216.435 11.6706 215.764 13.4284 214.996 15.1602C214.228 16.8919 213.342 18.5456 212.34 20.1211C211.35 21.6836 210.237 23.1354 209 24.4766C207.776 25.8047 206.415 26.957 204.918 27.9336C203.434 28.8971 201.812 29.6589 200.055 30.2188C198.31 30.7656 196.415 31.0391 194.371 31.0391C194.02 31.0391 193.688 30.974 193.375 30.8438C193.062 30.7135 192.789 30.5378 192.555 30.3164C192.32 30.082 192.138 29.8151 192.008 29.5156C191.878 29.2031 191.812 28.8711 191.812 28.5195V9.88672H196.891V25.7656C198.128 25.7656 199.312 25.4987 200.445 24.9648C201.591 24.431 202.672 23.7279 203.688 22.8555C204.703 21.9701 205.641 20.9674 206.5 19.8477C207.372 18.7279 208.147 17.582 208.824 16.4102C209.501 15.2253 210.074 14.0664 210.543 12.9336C211.025 11.8008 211.383 10.7852 211.617 9.88672H217.008Z" fill="white"/>
<path d="M186.93 5.55078H181.852V0.960938H186.93V5.55078ZM186.93 31H181.852V9.88672H186.93V31Z" fill="white"/>
<path d="M178.434 14.9648H169.566V31H164.43V14.9648H157.828V9.88672H164.43V2.99219H169.566V9.88672H178.434V14.9648Z" fill="white"/>
<path d="M155.035 31H141.266C140.562 31 139.794 30.8763 138.961 30.6289C138.128 30.3815 137.353 29.9779 136.637 29.418C135.934 28.8451 135.341 28.1094 134.859 27.2109C134.391 26.2995 134.156 25.1862 134.156 23.8711V16.9961C134.156 16.5143 134.208 16.0065 134.312 15.4727C134.43 14.9388 134.605 14.4115 134.84 13.8906C135.074 13.3568 135.374 12.849 135.738 12.3672C136.116 11.8854 136.565 11.4622 137.086 11.0977C137.62 10.7331 138.232 10.4401 138.922 10.2188C139.612 9.9974 140.393 9.88672 141.266 9.88672H155.035V14.9648H141.266C140.602 14.9648 140.094 15.1341 139.742 15.4727C139.404 15.8112 139.234 16.332 139.234 17.0352V23.8711C139.234 24.5352 139.41 25.043 139.762 25.3945C140.113 25.7461 140.628 25.9219 141.305 25.9219H155.035V31Z" fill="white"/>
<path d="M130.25 24.0078C130.25 24.7109 130.126 25.4727 129.879 26.293C129.632 27.1003 129.228 27.8555 128.668 28.5586C128.121 29.2487 127.398 29.8281 126.5 30.2969C125.615 30.7656 124.534 31 123.258 31H114.098C113.395 31 112.633 30.8763 111.812 30.6289C111.005 30.3815 110.25 29.9844 109.547 29.4375C108.857 28.8776 108.277 28.1549 107.809 27.2695C107.34 26.3711 107.105 25.2839 107.105 24.0078C107.105 23.3047 107.229 22.543 107.477 21.7227C107.724 20.9023 108.121 20.1471 108.668 19.457C109.228 18.7539 109.951 18.168 110.836 17.6992C111.734 17.2305 112.822 16.9961 114.098 16.9961H123.258V21.8398H114.098C113.408 21.8398 112.874 22.0547 112.496 22.4844C112.118 22.901 111.93 23.4219 111.93 24.0469C111.93 24.7109 112.145 25.2318 112.574 25.6094C113.017 25.974 113.538 26.1562 114.137 26.1562H123.258C123.948 26.1562 124.482 25.9479 124.859 25.5312C125.237 25.1146 125.426 24.5938 125.426 23.9688V16.8789C125.426 16.2148 125.217 15.6875 124.801 15.2969C124.397 14.9062 123.883 14.7109 123.258 14.7109H112.105V9.88672H123.258C123.961 9.88672 124.716 10.0104 125.523 10.2578C126.344 10.5052 127.099 10.9089 127.789 11.4688C128.492 12.0156 129.078 12.7383 129.547 13.6367C130.016 14.5221 130.25 15.6029 130.25 16.8789V24.0078Z" fill="white"/>
<path d="M106.734 14.9648H95.3086C94.6185 14.9648 94.0977 15.1406 93.7461 15.4922C93.3945 15.8307 93.2188 16.332 93.2188 16.9961V31H88.1406V16.9961C88.1406 16.1237 88.2513 15.3424 88.4727 14.6523C88.694 13.9622 88.987 13.3568 89.3516 12.8359C89.7292 12.3021 90.1589 11.8529 90.6406 11.4883C91.1224 11.1107 91.6237 10.8047 92.1445 10.5703C92.6784 10.3359 93.2122 10.1667 93.7461 10.0625C94.293 9.94531 94.8008 9.88672 95.2695 9.88672H106.734V14.9648Z" fill="white"/>
<path d="M84.8398 16.8789C84.8398 17.582 84.7161 18.3438 84.4688 19.1641C84.2214 19.9714 83.8177 20.7266 83.2578 21.4297C82.7109 22.1198 81.9883 22.6992 81.0898 23.168C80.2044 23.6367 79.1237 23.8711 77.8477 23.8711H68.6875V19.0469H77.8477C78.5378 19.0469 79.0716 18.8385 79.4492 18.4219C79.8268 17.9922 80.0156 17.4648 80.0156 16.8398C80.0156 16.1758 79.8008 15.6549 79.3711 15.2773C78.9544 14.8997 78.4466 14.7109 77.8477 14.7109H68.6875C67.9974 14.7109 67.4635 14.9258 67.0859 15.3555C66.7083 15.7721 66.5195 16.293 66.5195 16.918V24.0078C66.5195 24.6849 66.7279 25.2122 67.1445 25.5898C67.5742 25.9674 68.1016 26.1562 68.7266 26.1562H77.8477V31H68.6875C67.9844 31 67.2227 30.8763 66.4023 30.6289C65.5951 30.3815 64.8398 29.9844 64.1367 29.4375C63.4466 28.8776 62.8672 28.1549 62.3984 27.2695C61.9297 26.3711 61.6953 25.2839 61.6953 24.0078V16.8789C61.6953 16.1758 61.819 15.4206 62.0664 14.6133C62.3138 13.793 62.7109 13.0378 63.2578 12.3477C63.8177 11.6445 64.5404 11.0586 65.4258 10.5898C66.3242 10.1211 67.4115 9.88672 68.6875 9.88672H77.8477C78.5508 9.88672 79.306 10.0104 80.1133 10.2578C80.9336 10.5052 81.6888 10.9089 82.3789 11.4688C83.082 12.0156 83.668 12.7383 84.1367 13.6367C84.6055 14.5221 84.8398 15.6029 84.8398 16.8789Z" fill="white"/>
<path d="M58.8633 14.9648H49.9961V31H44.8594V14.9648H38.2578V9.88672H44.8594V2.99219H49.9961V9.88672H58.8633V14.9648Z" fill="white"/>
<path d="M35.8359 31H30.7578V19.2812C30.7578 18.6172 30.6406 18.0247 30.4062 17.5039C30.1849 16.9701 29.8789 16.5143 29.4883 16.1367C29.0977 15.7591 28.6354 15.4727 28.1016 15.2773C27.5807 15.069 27.0143 14.9648 26.4023 14.9648H17.5156V31H12.4375V12.4062C12.4375 12.0547 12.5026 11.7292 12.6328 11.4297C12.763 11.1172 12.9453 10.8503 13.1797 10.6289C13.4141 10.3945 13.6875 10.2122 14 10.082C14.3125 9.95182 14.6445 9.88672 14.9961 9.88672H26.4414C27.0794 9.88672 27.75 9.95833 28.4531 10.1016C29.1693 10.2448 29.8724 10.4792 30.5625 10.8047C31.2656 11.1172 31.9297 11.5208 32.5547 12.0156C33.1927 12.4974 33.7526 13.0898 34.2344 13.793C34.7292 14.4831 35.1198 15.2839 35.4062 16.1953C35.6927 17.1068 35.8359 18.1354 35.8359 19.2812V31Z" fill="white"/>
<path d="M7.06641 31H1.98828V2.99219H7.06641V31Z" fill="white"/>
<path d="M168.395 68.8789C168.395 69.582 168.271 70.3438 168.023 71.1641C167.776 71.9714 167.372 72.7266 166.812 73.4297C166.266 74.1198 165.543 74.6992 164.645 75.168C163.759 75.6367 162.678 75.8711 161.402 75.8711H152.242V71.0469H161.402C162.092 71.0469 162.626 70.8385 163.004 70.4219C163.382 69.9922 163.57 69.4648 163.57 68.8398C163.57 68.1758 163.355 67.6549 162.926 67.2773C162.509 66.8997 162.001 66.7109 161.402 66.7109H152.242C151.552 66.7109 151.018 66.9258 150.641 67.3555C150.263 67.7721 150.074 68.293 150.074 68.918V76.0078C150.074 76.6849 150.283 77.2122 150.699 77.5898C151.129 77.9674 151.656 78.1562 152.281 78.1562H161.402V83H152.242C151.539 83 150.777 82.8763 149.957 82.6289C149.15 82.3815 148.395 81.9844 147.691 81.4375C147.001 80.8776 146.422 80.1549 145.953 79.2695C145.484 78.3711 145.25 77.2839 145.25 76.0078V68.8789C145.25 68.1758 145.374 67.4206 145.621 66.6133C145.868 65.793 146.266 65.0378 146.812 64.3477C147.372 63.6445 148.095 63.0586 148.98 62.5898C149.879 62.1211 150.966 61.8867 152.242 61.8867H161.402C162.105 61.8867 162.861 62.0104 163.668 62.2578C164.488 62.5052 165.243 62.9089 165.934 63.4688C166.637 64.0156 167.223 64.7383 167.691 65.6367C168.16 66.5221 168.395 67.6029 168.395 68.8789Z" fill="white"/>
<path d="M141.637 83H127.867C127.164 83 126.396 82.8763 125.562 82.6289C124.729 82.3815 123.954 81.9779 123.238 81.418C122.535 80.8451 121.943 80.1094 121.461 79.2109C120.992 78.2995 120.758 77.1862 120.758 75.8711V68.9961C120.758 68.5143 120.81 68.0065 120.914 67.4727C121.031 66.9388 121.207 66.4115 121.441 65.8906C121.676 65.3568 121.975 64.849 122.34 64.3672C122.717 63.8854 123.167 63.4622 123.688 63.0977C124.221 62.7331 124.833 62.4401 125.523 62.2188C126.214 61.9974 126.995 61.8867 127.867 61.8867H141.637V66.9648H127.867C127.203 66.9648 126.695 67.1341 126.344 67.4727C126.005 67.8112 125.836 68.332 125.836 69.0352V75.8711C125.836 76.5352 126.012 77.043 126.363 77.3945C126.715 77.7461 127.229 77.9219 127.906 77.9219H141.637V83Z" fill="white"/>
<path d="M116.734 83H111.656V71.2812C111.656 70.6172 111.539 70.0247 111.305 69.5039C111.083 68.9701 110.777 68.5143 110.387 68.1367C109.996 67.7591 109.534 67.4727 109 67.2773C108.479 67.069 107.913 66.9648 107.301 66.9648H98.4141V83H93.3359V64.4062C93.3359 64.0547 93.401 63.7292 93.5312 63.4297C93.6615 63.1172 93.8438 62.8503 94.0781 62.6289C94.3125 62.3945 94.5859 62.2122 94.8984 62.082C95.2109 61.9518 95.543 61.8867 95.8945 61.8867H107.34C107.978 61.8867 108.648 61.9583 109.352 62.1016C110.068 62.2448 110.771 62.4792 111.461 62.8047C112.164 63.1172 112.828 63.5208 113.453 64.0156C114.091 64.4974 114.651 65.0898 115.133 65.793C115.628 66.4831 116.018 67.2839 116.305 68.1953C116.591 69.1068 116.734 70.1354 116.734 71.2812V83Z" fill="white"/>
<path d="M89.918 68.8789C89.918 69.582 89.7943 70.3438 89.5469 71.1641C89.2995 71.9714 88.8958 72.7266 88.3359 73.4297C87.7891 74.1198 87.0664 74.6992 86.168 75.168C85.2826 75.6367 84.2018 75.8711 82.9258 75.8711H73.7656V71.0469H82.9258C83.6159 71.0469 84.1497 70.8385 84.5273 70.4219C84.9049 69.9922 85.0938 69.4648 85.0938 68.8398C85.0938 68.1758 84.8789 67.6549 84.4492 67.2773C84.0326 66.8997 83.5247 66.7109 82.9258 66.7109H73.7656C73.0755 66.7109 72.5417 66.9258 72.1641 67.3555C71.7865 67.7721 71.5977 68.293 71.5977 68.918V76.0078C71.5977 76.6849 71.806 77.2122 72.2227 77.5898C72.6523 77.9674 73.1797 78.1562 73.8047 78.1562H82.9258V83H73.7656C73.0625 83 72.3008 82.8763 71.4805 82.6289C70.6732 82.3815 69.918 81.9844 69.2148 81.4375C68.5247 80.8776 67.9453 80.1549 67.4766 79.2695C67.0078 78.3711 66.7734 77.2839 66.7734 76.0078V68.8789C66.7734 68.1758 66.8971 67.4206 67.1445 66.6133C67.3919 65.793 67.7891 65.0378 68.3359 64.3477C68.8958 63.6445 69.6185 63.0586 70.5039 62.5898C71.4023 62.1211 72.4896 61.8867 73.7656 61.8867H82.9258C83.6289 61.8867 84.3841 62.0104 85.1914 62.2578C86.0117 62.5052 86.7669 62.9089 87.457 63.4688C88.1602 64.0156 88.7461 64.7383 89.2148 65.6367C89.6836 66.5221 89.918 67.6029 89.918 68.8789Z" fill="white"/>
<path d="M62.3203 57.5508H57.2422V52.9609H62.3203V57.5508ZM62.3203 83H57.2422V61.8867H62.3203V83Z" fill="white"/>
<path d="M52.9648 83H39.1953C38.4922 83 37.724 82.8763 36.8906 82.6289C36.0573 82.3815 35.2826 81.9779 34.5664 81.418C33.8633 80.8451 33.2708 80.1094 32.7891 79.2109C32.3203 78.2995 32.0859 77.1862 32.0859 75.8711V68.9961C32.0859 68.5143 32.138 68.0065 32.2422 67.4727C32.3594 66.9388 32.5352 66.4115 32.7695 65.8906C33.0039 65.3568 33.3034 64.849 33.668 64.3672C34.0456 63.8854 34.4948 63.4622 35.0156 63.0977C35.5495 62.7331 36.1615 62.4401 36.8516 62.2188C37.5417 61.9974 38.3229 61.8867 39.1953 61.8867H52.9648V66.9648H39.1953C38.5312 66.9648 38.0234 67.1341 37.6719 67.4727C37.3333 67.8112 37.1641 68.332 37.1641 69.0352V75.8711C37.1641 76.5352 37.3398 77.043 37.6914 77.3945C38.043 77.7461 38.5573 77.9219 39.2344 77.9219H52.9648V83Z" fill="white"/>
<path d="M28.8633 74.7578C28.8633 75.7604 28.7331 76.6654 28.4727 77.4727C28.2253 78.2669 27.8932 78.9701 27.4766 79.582C27.0599 80.194 26.5716 80.7148 26.0117 81.1445C25.4518 81.5742 24.8724 81.9258 24.2734 82.1992C23.6745 82.4727 23.0625 82.6745 22.4375 82.8047C21.8255 82.9349 21.2461 83 20.6992 83H1.10938V77.9219H20.6992C21.6758 77.9219 22.431 77.6354 22.9648 77.0625C23.5117 76.4896 23.7852 75.7214 23.7852 74.7578C23.7852 74.2891 23.7135 73.8594 23.5703 73.4688C23.4271 73.0781 23.2188 72.7396 22.9453 72.4531C22.6849 72.1667 22.3594 71.9453 21.9688 71.7891C21.5911 71.6328 21.168 71.5547 20.6992 71.5547H9.01953C8.19922 71.5547 7.3138 71.4115 6.36328 71.125C5.41276 70.8255 4.52734 70.3503 3.70703 69.6992C2.89974 69.0482 2.22266 68.1953 1.67578 67.1406C1.14193 66.0859 0.875 64.7969 0.875 63.2734C0.875 61.75 1.14193 60.4674 1.67578 59.4258C2.22266 58.3711 2.89974 57.5182 3.70703 56.8672C4.52734 56.2031 5.41276 55.7279 6.36328 55.4414C7.3138 55.1419 8.19922 54.9922 9.01953 54.9922H26.3047V60.0703H9.01953C8.05599 60.0703 7.30078 60.3633 6.75391 60.9492C6.22005 61.5352 5.95312 62.3099 5.95312 63.2734C5.95312 64.25 6.22005 65.0247 6.75391 65.5977C7.30078 66.1576 8.05599 66.4375 9.01953 66.4375H20.6992H20.7383C21.2852 66.4505 21.8646 66.5286 22.4766 66.6719C23.0885 66.8021 23.694 67.0104 24.293 67.2969C24.9049 67.5833 25.4844 67.9479 26.0312 68.3906C26.5781 68.8203 27.0599 69.3411 27.4766 69.9531C27.9062 70.5651 28.2448 71.2682 28.4922 72.0625C28.7396 72.8568 28.8633 73.7552 28.8633 74.7578Z" fill="white"/>
<path d="M164.449 135H159.371V120.996C159.371 120.332 159.195 119.831 158.844 119.492C158.492 119.141 157.971 118.965 157.281 118.965H150.68V135H145.602V116.406C145.602 116.055 145.667 115.729 145.797 115.43C145.927 115.117 146.109 114.85 146.344 114.629C146.578 114.395 146.852 114.212 147.164 114.082C147.477 113.952 147.809 113.887 148.16 113.887H157.32C158.023 113.887 158.779 114.01 159.586 114.258C160.393 114.505 161.161 114.902 161.891 115.449V113.887H168.766C169.247 113.887 169.755 113.945 170.289 114.062C170.823 114.167 171.35 114.336 171.871 114.57C172.405 114.805 172.913 115.111 173.395 115.488C173.876 115.853 174.299 116.302 174.664 116.836C175.029 117.357 175.322 117.962 175.543 118.652C175.764 119.342 175.875 120.124 175.875 120.996V135H170.797V120.996C170.797 120.332 170.628 119.831 170.289 119.492C169.964 119.141 169.456 118.965 168.766 118.965H164.195C164.365 119.59 164.449 120.267 164.449 120.996V135Z" fill="white"/>
<path d="M140.836 132.441C140.836 132.806 140.771 133.145 140.641 133.457C140.51 133.77 140.328 134.043 140.094 134.277C139.872 134.499 139.605 134.674 139.293 134.805C138.993 134.935 138.668 135 138.316 135H126.832C126.207 135 125.536 134.928 124.82 134.785C124.117 134.642 123.421 134.414 122.73 134.102C122.04 133.776 121.37 133.372 120.719 132.891C120.081 132.396 119.521 131.803 119.039 131.113C118.557 130.41 118.167 129.603 117.867 128.691C117.581 127.78 117.438 126.751 117.438 125.605V113.887H122.516V125.605C122.516 126.27 122.626 126.868 122.848 127.402C123.082 127.923 123.395 128.372 123.785 128.75C124.176 129.128 124.632 129.421 125.152 129.629C125.686 129.824 126.259 129.922 126.871 129.922H135.758V113.887H140.836V132.441Z" fill="white"/>
<path d="M114.332 120.879C114.332 121.582 114.208 122.344 113.961 123.164C113.714 123.971 113.31 124.727 112.75 125.43C112.203 126.12 111.48 126.699 110.582 127.168C109.697 127.637 108.616 127.871 107.34 127.871H98.1797V123.047H107.34C108.03 123.047 108.564 122.839 108.941 122.422C109.319 121.992 109.508 121.465 109.508 120.84C109.508 120.176 109.293 119.655 108.863 119.277C108.447 118.9 107.939 118.711 107.34 118.711H98.1797C97.4896 118.711 96.9557 118.926 96.5781 119.355C96.2005 119.772 96.0117 120.293 96.0117 120.918V128.008C96.0117 128.685 96.2201 129.212 96.6367 129.59C97.0664 129.967 97.5938 130.156 98.2188 130.156H107.34V135H98.1797C97.4766 135 96.7148 134.876 95.8945 134.629C95.0872 134.382 94.332 133.984 93.6289 133.438C92.9388 132.878 92.3594 132.155 91.8906 131.27C91.4219 130.371 91.1875 129.284 91.1875 128.008V120.879C91.1875 120.176 91.3112 119.421 91.5586 118.613C91.806 117.793 92.2031 117.038 92.75 116.348C93.3099 115.645 94.0326 115.059 94.918 114.59C95.8164 114.121 96.9036 113.887 98.1797 113.887H107.34C108.043 113.887 108.798 114.01 109.605 114.258C110.426 114.505 111.181 114.909 111.871 115.469C112.574 116.016 113.16 116.738 113.629 117.637C114.098 118.522 114.332 119.603 114.332 120.879Z" fill="white"/>
<path d="M88.043 127.871C88.043 128.743 87.9323 129.531 87.7109 130.234C87.4896 130.924 87.1966 131.536 86.832 132.07C86.4674 132.591 86.0443 133.04 85.5625 133.418C85.0807 133.783 84.5729 134.082 84.0391 134.316C83.5182 134.551 82.9844 134.727 82.4375 134.844C81.9036 134.948 81.3958 135 80.9141 135H67.1641V129.922H80.875C81.5651 129.922 82.0859 129.746 82.4375 129.395C82.7891 129.043 82.9648 128.535 82.9648 127.871C82.8997 126.517 82.2161 125.84 80.9141 125.84H73.043C71.9232 125.84 70.9727 125.645 70.1914 125.254C69.4102 124.863 68.7721 124.375 68.2773 123.789C67.7956 123.203 67.444 122.572 67.2227 121.895C67.0143 121.217 66.9102 120.586 66.9102 120C66.9102 118.867 67.112 117.917 67.5156 117.148C67.9193 116.367 68.4271 115.736 69.0391 115.254C69.651 114.772 70.3151 114.427 71.0312 114.219C71.7474 113.997 72.418 113.887 73.043 113.887H85.5234V118.965H73.082C72.8216 118.965 72.6133 118.997 72.457 119.062C72.3138 119.115 72.2031 119.193 72.125 119.297C72.0599 119.388 72.0208 119.492 72.0078 119.609C71.9948 119.714 71.9883 119.818 71.9883 119.922C72.0013 120.13 72.0404 120.293 72.1055 120.41C72.1706 120.527 72.2487 120.612 72.3398 120.664C72.444 120.716 72.5547 120.749 72.6719 120.762C72.8021 120.762 72.9258 120.762 73.043 120.762H80.9141C82.2161 120.762 83.3229 120.996 84.2344 121.465C85.1458 121.934 85.8815 122.526 86.4414 123.242C87.0013 123.945 87.4049 124.714 87.6523 125.547C87.9128 126.38 88.043 127.155 88.043 127.871Z" fill="white"/>
<path d="M62.8672 132.441C62.8672 132.806 62.8021 133.145 62.6719 133.457C62.5417 133.77 62.3594 134.043 62.125 134.277C61.9036 134.499 61.6367 134.674 61.3242 134.805C61.0247 134.935 60.6992 135 60.3477 135H48.8633C48.2383 135 47.5677 134.928 46.8516 134.785C46.1484 134.642 45.4518 134.414 44.7617 134.102C44.0716 133.776 43.401 133.372 42.75 132.891C42.112 132.396 41.5521 131.803 41.0703 131.113C40.5885 130.41 40.1979 129.603 39.8984 128.691C39.612 127.78 39.4688 126.751 39.4688 125.605V113.887H44.5469V125.605C44.5469 126.27 44.6576 126.868 44.8789 127.402C45.1133 127.923 45.4258 128.372 45.8164 128.75C46.207 129.128 46.6628 129.421 47.1836 129.629C47.7174 129.824 48.2904 129.922 48.9023 129.922H57.7891V113.887H62.8672V132.441Z" fill="white"/>
<path d="M34.5469 135H29.4297V118.32L20.4258 134.16C20.2044 134.564 19.8919 134.87 19.4883 135.078C19.0977 135.286 18.6745 135.391 18.2188 135.391C17.776 135.391 17.3594 135.286 16.9688 135.078C16.5911 134.87 16.2917 134.564 16.0703 134.16L7.02734 118.32V135H1.94922V109.16C1.94922 108.574 2.11849 108.053 2.45703 107.598C2.80859 107.142 3.26432 106.836 3.82422 106.68C4.09766 106.615 4.37109 106.595 4.64453 106.621C4.91797 106.634 5.17839 106.693 5.42578 106.797C5.6862 106.888 5.92057 107.025 6.12891 107.207C6.33724 107.376 6.51302 107.585 6.65625 107.832L18.2188 127.93L29.7812 107.832C30.0807 107.337 30.4909 106.986 31.0117 106.777C31.5456 106.569 32.099 106.536 32.6719 106.68C33.2188 106.836 33.668 107.142 34.0195 107.598C34.3711 108.053 34.5469 108.574 34.5469 109.16V135Z" fill="white"/>
</svg>
